<svg width="500" height="500" viewBox="0 0 500 500" fill="none" xmlns="http://www.w3.org/2000/svg">
<rect width="500" height="500" fill="white"/>
<circle cx="250" cy="250" r="225" fill="#B8956F"/>
<path d="M241.3 295.6C241.3 308.2 238.2 319.2 232 328.6C225.8 338 216.8 345.3 205 350.5C193.4 355.5 179.2 358 162.4 358C155 358 147.7 357.5 140.5 356.5C133.5 355.5 126.7 354.1 120.1 352.3C113.7 350.3 107.6 347.9 101.8 345.1V302.8C112 307.2 122.5 311.3 133.3 315.1C144.3 318.7 155.2 320.5 166 320.5C173.4 320.5 179.3 319.5 183.7 317.5C188.3 315.5 191.6 312.8 193.6 309.4C195.8 306 196.9 302.1 196.9 297.7C196.9 292.3 195 287.7 191.2 283.9C187.6 280.1 182.7 276.6 176.5 273.4C170.3 270 163.2 266.4 155.2 262.6C150.2 260.2 144.8 257.4 139 254.2C133.2 250.8 127.6 246.7 122.2 241.9C117 236.9 112.7 230.9 109.3 223.9C105.9 216.9 104.2 208.5 104.2 198.7C104.2 185.9 107.1 175 112.9 166C118.9 156.8 127.3 149.8 138.1 145C149.1 140.2 162 137.8 176.8 137.8C188 137.8 198.6 139.1 208.6 141.7C218.8 144.3 229.4 148 240.4 152.8L225.7 188.2C215.9 184.2 207.1 181.1 199.3 178.9C191.5 176.7 183.5 175.6 175.3 175.6C169.7 175.6 164.9 176.5 160.9 178.3C156.9 180.1 153.8 182.6 151.6 185.8C149.6 189 148.6 192.8 148.6 197.2C148.6 202.2 150.1 206.5 153.1 210.1C156.1 213.5 160.6 216.8 166.6 220C172.6 223.2 180.1 227 189.1 231.4C200.1 236.6 209.4 242 217 247.6C224.8 253.2 230.8 259.8 235 267.4C239.2 275 241.3 284.4 241.3 295.6ZM280.234 355V140.8H325.534V317.5H412.534V355H280.234Z" fill="white"/>
</svg>
